<?xml version="1.0" encoding="utf-8"?>
<!-- Generator: Adobe Illustrator 16.0.0, SVG Export Plug-In . SVG Version: 6.00 Build 0)  -->
<!DOCTYPE svg PUBLIC "-//W3C//DTD SVG 1.1//EN" "http://www.w3.org/Graphics/SVG/1.1/DTD/svg11.dtd">
<svg version="1.1" id="Layer_1" xmlns="http://www.w3.org/2000/svg" xmlns:xlink="http://www.w3.org/1999/xlink" x="0px" y="0px"
	 width="945px" height="150px" viewBox="0 0 945 150" enable-background="new 0 0 945 150" xml:space="preserve">
<g>
	<path fill-rule="evenodd" clip-rule="evenodd" fill="#B11F29" d="M91.298,143.189c-37.415,0.061-68.175-30.689-68.19-68.174
		C23.09,37.533,53.863,6.765,91.322,6.811c37.427,0.046,68.09,30.591,68.197,67.932C159.627,112.383,128.983,143.127,91.298,143.189
		z"/>
	<path fill-rule="evenodd" clip-rule="evenodd" fill="#FEFEFE" d="M104.266,99.75c1.029,0.57,2.271,0.738,3.079,1.736
		c1.757,2.164,0.912,4.275-2.51,6.178c-0.677,0.475-1.45,0.285-2.183,0.287c-16.576,0.01-33.152,0.01-49.729-0.002
		c-0.729,0-1.508,0.207-2.173-0.307c-1.646-0.881-3.362-1.826-3.271-3.994c0.097-2.289,1.952-3.135,3.775-3.893
		c0.604-0.363,1.274-0.244,1.921-0.244c16.389-0.006,32.777-0.006,49.167,0C102.988,99.512,103.658,99.396,104.266,99.75z"/>
	<path fill-rule="evenodd" clip-rule="evenodd" fill="#FDFDFD" d="M78.055,96.959c-5.908,0-11.816,0.014-17.724-0.006
		c-2.933-0.01-5.024-1.557-5.091-3.691c-0.067-2.197,1.842-3.861,4.926-3.881c11.909-0.066,23.819-0.066,35.729-0.014
		c2.992,0.014,5.016,1.738,4.964,3.875c-0.051,2.121-2.172,3.701-5.08,3.711C89.87,96.971,83.962,96.959,78.055,96.959z"/>
	<path fill-rule="evenodd" clip-rule="evenodd" fill="#FFFFFF" d="M86.293,72.717c-3.088-0.946-5.801-3.028-7.628-5.822
		c-1.457-2.227,0.026-4.37,1.669-6.25c2.215-2.532,4.166-5.29,6.359-7.841c2.166-2.52,4.182-2.635,6.841-0.638
		c6.57,4.936,6.706,6.01,1.573,12.389c-1.584,1.967-3.183,3.923-4.742,5.908C89.393,71.698,88.188,72.475,86.293,72.717z"/>
	<path fill-rule="evenodd" clip-rule="evenodd" fill="#FEFEFE" d="M128.574,93.555c-1.838,2.123-3.531,1.232-5.534,0.035
		c-8.176-4.887-15.436-10.836-21.927-17.81c-1.692-1.818-0.728-2.653,0.199-4.115c1.251-1.97,2.265-0.748,3.407-0.108
		c8.729,4.893,16.405,11.092,23.141,18.492c1.048,1.154,1.399,2.199,0.652,3.568L128.574,93.555z"/>
	<path fill-rule="evenodd" clip-rule="evenodd" fill="#FDFDFD" d="M103.307,57.272c-1.021-0.264-2.04-0.433-2.876-1.107
		c-2.979-2.411-5.981-4.791-8.943-7.221c-1.743-1.431-2.735-3.209-1.39-5.361c1.037-1.659,3.484-1.537,5.716,0.206
		c3.022,2.358,6.036,4.731,8.939,7.229c1.292,1.111,2.194,2.577,1.456,4.468C105.682,56.833,104.507,57.082,103.307,57.272z"/>
	<path fill-rule="evenodd" clip-rule="evenodd" fill="#FEFEFE" d="M73.338,66.53c1.037-0.154,1.864,0.159,2.508,0.668
		c3.366,2.661,6.75,5.308,9.982,8.125c1.396,1.215,2.192,2.952,0.781,4.706c-1.374,1.707-3.278,1.514-4.785,0.398
		c-3.521-2.605-6.923-5.383-10.268-8.215c-1.309-1.108-1.613-2.778-0.9-4.356C71.148,66.764,72.205,66.258,73.338,66.53z"/>
	<path fill-rule="evenodd" clip-rule="evenodd" fill="#FAFAF9" d="M128.513,93.617c0.59-0.215,1.17-0.469,1.772-0.639
		c1.828-0.514,3.356-0.025,4.331,1.621c0.976,1.652,0.681,3.262-0.698,4.553c-1.28,1.197-2.823,1.439-4.357,0.506
		c-1.627-0.988-2.152-2.49-1.614-4.328c0.178-0.6,0.417-1.184,0.628-1.775L128.513,93.617z"/>
	<path fill-rule="evenodd" clip-rule="evenodd" fill="#FBFBFB" d="M101.053,69.204c0.006,2.111-1.617,3.701-3.746,3.636
		c-2.27-0.068-3.406-1.438-3.636-3.522c-0.208-1.879,1.759-3.834,3.675-3.878C99.378,65.391,101.047,67.085,101.053,69.204z"/>
	<path fill-rule="evenodd" clip-rule="evenodd" fill="#FEFEFE" d="M50.751,107.643c18.028,0.008,36.056,0.016,54.084,0.021
		c-0.456,0.621-1.129,0.58-1.784,0.58c-17.164,0.002-34.326,0.002-51.488-0.004c-0.266,0-0.541-0.047-0.791-0.133
		C50.719,108.09,50.756,107.807,50.751,107.643z"/>
	<path fill-rule="evenodd" clip-rule="evenodd" fill="#FEFEFE" d="M104.266,99.75c-17.67,0.002-35.341,0.004-53.011,0.006
		c0.752-0.82,1.747-0.521,2.646-0.523c15.905-0.016,31.811-0.016,47.715,0.002C102.516,99.234,103.509,98.939,104.266,99.75z"/>
</g>
<g>
	<path fill="#48484A" d="M183.022,52.623l16.588,38.13h0.168l16.643-38.13h2.199v40.523h-1.503V55.267l-0.167-0.056l-16.644,37.935
		h-1.196l-16.561-37.74l-0.167,0.056v37.685h-1.503V52.623H183.022z"/>
	<path fill="#48484A" d="M251.602,81.039h-19.816l-4.51,12.107h-1.642l15.141-40.523h1.837l15.168,40.523h-1.642L251.602,81.039z
		 M232.342,79.537h18.703l-8.489-22.823l-0.779-2.282h-0.167l-0.752,2.282L232.342,79.537z"/>
	<path fill="#48484A" d="M265.795,75.751v17.395h-1.503V52.623h12.664c4.192,0,7.421,1.053,9.686,3.159
		c2.263,2.106,3.395,4.903,3.395,8.391c0,3.525-1.127,6.336-3.381,8.433c-2.255,2.097-5.488,3.145-9.699,3.145H265.795z
		 M265.795,74.249h11.161c3.84,0,6.73-0.956,8.669-2.867c1.938-1.911,2.909-4.295,2.909-7.153c0-2.932-0.966-5.348-2.895-7.25
		c-1.931-1.901-4.825-2.853-8.684-2.853h-11.161V74.249z"/>
	<path fill="#48484A" d="M316.032,81.039h-19.816l-4.51,12.107h-1.642l15.141-40.523h1.837l15.168,40.523h-1.642L316.032,81.039z
		 M296.772,79.537h18.703l-8.489-22.823l-0.779-2.282h-0.167l-0.752,2.282L296.772,79.537z"/>
	<path fill="#48484A" d="M369.33,54.126h-14.75v39.021h-1.504V54.126h-14.75v-1.503h31.004V54.126z"/>
	<path fill="#48484A" d="M377.791,74.137v19.037h-1.502V52.651h12.914c4.267,0,7.551,0.923,9.852,2.769
		c2.301,1.847,3.451,4.542,3.451,8.085c0,2.282-0.728,4.356-2.185,6.22c-1.457,1.865-3.446,3.076-5.97,3.632
		c2.913,0.501,5,1.568,6.262,3.201c1.262,1.633,1.893,3.721,1.893,6.262v3.813c0,1.262,0.153,2.394,0.46,3.396
		c0.306,1.002,0.812,1.818,1.517,2.449v0.695h-1.475c-0.668-0.76-1.17-1.701-1.504-2.824s-0.5-2.38-0.5-3.771v-3.701
		c0-2.746-0.942-4.889-2.825-6.43c-1.884-1.54-4.569-2.31-8.058-2.31H377.791z M377.791,72.634h11.133
		c4.138,0,7.186-0.872,9.144-2.616c1.957-1.744,2.937-3.915,2.937-6.513c0-3.024-0.988-5.339-2.965-6.944
		c-1.976-1.605-4.922-2.408-8.836-2.408h-11.412V72.634z"/>
	<path fill="#48484A" d="M435.543,72.773h-20.317v18.87h23.156v1.503h-24.659V52.623h24.659v1.503h-23.156v17.145h20.317V72.773z"/>
	<path fill="#48484A" d="M470.5,83.434c0-2.543-0.933-4.574-2.797-6.096c-1.865-1.521-5.099-2.913-9.7-4.175
		c-4.619-1.243-8.001-2.658-10.145-4.244c-2.143-1.587-3.215-3.901-3.215-6.944c0-3.024,1.262-5.437,3.785-7.236
		c2.523-1.799,5.743-2.7,9.658-2.7c3.952,0,7.181,1.104,9.686,3.312c2.505,2.208,3.72,5.047,3.646,8.517l-0.057,0.167h-1.279
		c0-3.024-1.113-5.529-3.34-7.515c-2.227-1.985-5.112-2.978-8.656-2.978c-3.674,0-6.582,0.821-8.726,2.463
		c-2.143,1.642-3.214,3.614-3.214,5.914c0,2.301,0.886,4.212,2.657,5.733c1.771,1.521,4.978,2.876,9.616,4.063
		c4.49,1.188,7.881,2.64,10.173,4.355c2.291,1.717,3.437,4.151,3.437,7.306c0,3.211-1.308,5.738-3.924,7.585
		s-5.892,2.769-9.824,2.769c-4.064,0-7.562-0.95-10.493-2.853c-2.932-1.901-4.352-4.894-4.259-8.976l0.057-0.167h1.252
		c0,3.674,1.354,6.342,4.063,8.002s5.835,2.491,9.38,2.491c3.563,0,6.488-0.816,8.78-2.449S470.5,86.031,470.5,83.434z"/>
	<path fill="#48484A" d="M507.183,54.126h-14.75v39.021h-1.504V54.126h-14.75v-1.503h31.004V54.126z"/>
	<path fill="#48484A" d="M543.476,93.146h-1.502l-25.996-37.74l-0.166,0.056v37.685h-1.531V52.623h1.531l25.994,37.656l0.168-0.055
		V52.623h1.502V93.146z"/>
	<path fill="#48484A" d="M564.489,75.139l0.723,1.392l0.752-1.392l13.443-22.516h1.836L566.02,77.756v15.391h-1.53V77.756
		l-15.225-25.133h1.837L564.489,75.139z M569.722,42.743h2.17l0.057,0.139l-6.43,7.264h-1.865l-0.055-0.139L569.722,42.743z"/>
	<path fill="#48484A" d="M614.113,80.733l0.056,0.167c0.074,4.156-1.183,7.334-3.771,9.532c-2.588,2.199-5.997,3.298-10.228,3.298
		c-4.436,0-7.988-1.637-10.66-4.912c-2.672-3.274-4.008-7.574-4.008-12.9v-6.067c0-5.306,1.336-9.602,4.008-12.886
		s6.225-4.926,10.66-4.926c4.23,0,7.64,1.104,10.228,3.312c2.589,2.208,3.846,5.362,3.771,9.463l-0.056,0.167h-1.28
		c0-3.655-1.137-6.475-3.409-8.461c-2.273-1.985-5.357-2.978-9.254-2.978c-3.953,0-7.135,1.494-9.547,4.481
		c-2.412,2.988-3.618,6.912-3.618,11.773v6.123c0,4.917,1.206,8.865,3.618,11.842c2.412,2.979,5.594,4.468,9.547,4.468
		c3.896,0,6.98-0.956,9.254-2.867c2.272-1.911,3.409-4.787,3.409-8.628H614.113z"/>
	<path fill="#48484A" d="M652.883,93.146h-1.503V73.803h-25.884v19.343h-1.503V52.623h1.503V72.3h25.884V52.623h1.503V93.146z"/>
	<path fill="#48484A" d="M704.706,80.733l0.056,0.167c0.074,4.156-1.183,7.334-3.771,9.532c-2.588,2.199-5.997,3.298-10.228,3.298
		c-4.436,0-7.988-1.637-10.66-4.912c-2.672-3.274-4.008-7.574-4.008-12.9v-6.067c0-5.306,1.336-9.602,4.008-12.886
		s6.225-4.926,10.66-4.926c4.23,0,7.64,1.104,10.228,3.312c2.589,2.208,3.846,5.362,3.771,9.463l-0.056,0.167h-1.28
		c0-3.655-1.137-6.475-3.409-8.461c-2.273-1.985-5.357-2.978-9.254-2.978c-3.953,0-7.135,1.494-9.547,4.481
		c-2.412,2.988-3.618,6.912-3.618,11.773v6.123c0,4.917,1.206,8.865,3.618,11.842c2.412,2.979,5.594,4.468,9.547,4.468
		c3.896,0,6.98-0.956,9.254-2.867c2.272-1.911,3.409-4.787,3.409-8.628H704.706z M690.929,46.917l5.121-5.205h1.865v0.445
		l-5.9,5.761h-2.199l-5.955-5.817v-0.39h1.976L690.929,46.917z"/>
	<path fill="#48484A" d="M717.203,93.146H715.7V52.623h1.503V93.146z"/>
	<path fill="#48484A" d="M758.645,93.146h-1.502l-25.996-37.74l-0.166,0.056v37.685h-1.531V52.623h1.531l25.994,37.656l0.168-0.055
		V52.623h1.502V93.146z"/>
	<path fill="#48484A" d="M798.474,75.918c0,5.474-1.355,9.811-4.064,13.011c-2.709,3.201-6.438,4.801-11.188,4.801
		c-4.77,0-8.513-1.6-11.23-4.801c-2.719-3.2-4.078-7.537-4.078-13.011v-6.067c0-5.455,1.351-9.787,4.05-12.998
		c2.7-3.21,6.434-4.815,11.202-4.815c4.75,0,8.489,1.605,11.217,4.815c2.728,3.21,4.092,7.542,4.092,12.998V75.918z M796.97,69.795
		c0-4.972-1.196-8.924-3.59-11.856c-2.394-2.932-5.799-4.397-10.215-4.397c-4.396,0-7.783,1.466-10.158,4.397
		c-2.375,2.932-3.563,6.884-3.563,11.856v6.123c0,5.009,1.192,8.98,3.576,11.912c2.384,2.933,5.784,4.398,10.201,4.398
		c4.415,0,7.811-1.462,10.186-4.384c2.375-2.923,3.563-6.897,3.563-11.926V69.795z"/>
	<path fill="#48484A" d="M817.788,89.194l0.723,2.198h0.168l0.723-2.198l13.61-36.571h1.642l-15.141,40.523h-1.836l-15.141-40.523
		h1.642L817.788,89.194z"/>
	<path fill="#48484A" d="M879.13,83.434c0-2.543-0.933-4.574-2.797-6.096c-1.865-1.521-5.099-2.913-9.7-4.175
		c-4.619-1.243-8.001-2.658-10.145-4.244c-2.143-1.587-3.215-3.901-3.215-6.944c0-3.024,1.262-5.437,3.785-7.236
		c2.523-1.799,5.743-2.7,9.658-2.7c3.952,0,7.181,1.104,9.686,3.312c2.505,2.208,3.72,5.047,3.646,8.517l-0.057,0.167h-1.279
		c0-3.024-1.113-5.529-3.34-7.515c-2.227-1.985-5.112-2.978-8.656-2.978c-3.674,0-6.582,0.821-8.726,2.463
		c-2.143,1.642-3.214,3.614-3.214,5.914c0,2.301,0.886,4.212,2.657,5.733c1.771,1.521,4.978,2.876,9.616,4.063
		c4.49,1.188,7.881,2.64,10.173,4.355c2.291,1.717,3.437,4.151,3.437,7.306c0,3.211-1.308,5.738-3.924,7.585
		s-5.892,2.769-9.824,2.769c-4.064,0-7.562-0.95-10.493-2.853c-2.932-1.901-4.352-4.894-4.259-8.976l0.057-0.167h1.252
		c0,3.674,1.354,6.342,4.063,8.002s5.835,2.491,9.38,2.491c3.563,0,6.488-0.816,8.78-2.449S879.13,86.031,879.13,83.434z"/>
	<path fill="#48484A" d="M890.206,74.137v19.037h-1.502V52.651h12.914c4.267,0,7.551,0.923,9.852,2.769
		c2.301,1.847,3.451,4.542,3.451,8.085c0,2.282-0.728,4.356-2.185,6.22c-1.457,1.865-3.446,3.076-5.97,3.632
		c2.913,0.501,5,1.568,6.262,3.201c1.262,1.633,1.893,3.721,1.893,6.262v3.813c0,1.262,0.153,2.394,0.46,3.396
		c0.306,1.002,0.812,1.818,1.517,2.449v0.695h-1.475c-0.668-0.76-1.17-1.701-1.504-2.824s-0.5-2.38-0.5-3.771v-3.701
		c0-2.746-0.942-4.889-2.825-6.43c-1.884-1.54-4.569-2.31-8.058-2.31H890.206z M890.206,72.634h11.133
		c4.138,0,7.186-0.872,9.144-2.616c1.957-1.744,2.937-3.915,2.937-6.513c0-3.024-0.988-5.339-2.965-6.944
		c-1.976-1.605-4.922-2.408-8.836-2.408h-11.412V72.634z"/>
</g>
</svg>
