<?xml version="1.0" encoding="utf-8"?>
<!-- Generator: Adobe Illustrator 16.0.0, SVG Export Plug-In . SVG Version: 6.00 Build 0)  -->
<!DOCTYPE svg PUBLIC "-//W3C//DTD SVG 1.1//EN" "http://www.w3.org/Graphics/SVG/1.1/DTD/svg11.dtd">
<svg version="1.1" id="Layer_1" xmlns="http://www.w3.org/2000/svg" xmlns:xlink="http://www.w3.org/1999/xlink" x="0px" y="0px"
	 width="673px" height="150px" viewBox="0 0 673 150" enable-background="new 0 0 673 150" xml:space="preserve">
<g>
	<path fill="#B11F29" d="M91.298,143.189c-37.415,0.061-68.175-30.689-68.19-68.174C23.09,37.533,53.863,6.765,91.322,6.811
		c37.427,0.046,68.09,30.591,68.197,67.932C159.627,112.383,128.983,143.127,91.298,143.189z"/>
	<path fill="#FEFEFE" d="M104.266,99.75c1.029,0.57,2.271,0.738,3.079,1.736c1.757,2.164,0.912,4.274-2.51,6.178
		c-0.677,0.475-1.45,0.285-2.183,0.287c-16.576,0.01-33.152,0.01-49.729-0.002c-0.729,0-1.508,0.207-2.173-0.307
		c-1.646-0.882-3.362-1.826-3.271-3.994c0.097-2.289,1.952-3.135,3.775-3.894c0.604-0.362,1.274-0.244,1.921-0.244
		c16.389-0.006,32.777-0.006,49.167,0C102.988,99.512,103.658,99.396,104.266,99.75z"/>
	<path fill="#FDFDFD" d="M78.055,96.959c-5.908,0-11.816,0.014-17.724-0.006c-2.933-0.01-5.024-1.557-5.091-3.691
		c-0.067-2.197,1.842-3.861,4.926-3.881c11.909-0.066,23.819-0.066,35.729-0.014c2.992,0.014,5.016,1.738,4.964,3.875
		c-0.051,2.121-2.172,3.701-5.08,3.711C89.87,96.971,83.962,96.959,78.055,96.959z"/>
	<path fill="#FFFFFF" d="M86.293,72.717c-3.088-0.946-5.801-3.028-7.628-5.822c-1.457-2.227,0.026-4.37,1.669-6.25
		c2.215-2.532,4.166-5.29,6.359-7.841c2.166-2.52,4.182-2.635,6.841-0.638c6.57,4.936,6.706,6.01,1.573,12.389
		c-1.584,1.967-3.183,3.923-4.742,5.908C89.393,71.698,88.188,72.475,86.293,72.717z"/>
	<path fill="#FEFEFE" d="M128.574,93.555c-1.838,2.123-3.531,1.232-5.534,0.035c-8.176-4.887-15.436-10.836-21.927-17.81
		c-1.692-1.818-0.728-2.653,0.199-4.115c1.251-1.97,2.265-0.748,3.407-0.108c8.729,4.893,16.405,11.091,23.141,18.492
		c1.048,1.154,1.399,2.199,0.652,3.568L128.574,93.555z"/>
	<path fill="#FDFDFD" d="M103.307,57.272c-1.021-0.264-2.04-0.433-2.876-1.107c-2.979-2.411-5.981-4.791-8.943-7.221
		c-1.743-1.431-2.735-3.209-1.39-5.361c1.037-1.659,3.484-1.537,5.716,0.206c3.022,2.358,6.036,4.731,8.939,7.229
		c1.292,1.111,2.194,2.577,1.456,4.468C105.682,56.833,104.507,57.082,103.307,57.272z"/>
	<path fill="#FEFEFE" d="M73.338,66.53c1.037-0.154,1.864,0.159,2.508,0.668c3.366,2.661,6.75,5.308,9.982,8.125
		c1.396,1.215,2.192,2.952,0.781,4.706c-1.374,1.707-3.278,1.514-4.785,0.397c-3.521-2.604-6.923-5.383-10.268-8.215
		c-1.309-1.108-1.613-2.778-0.9-4.356C71.148,66.764,72.205,66.258,73.338,66.53z"/>
	<path fill="#FAFAF9" d="M128.513,93.617c0.59-0.215,1.17-0.469,1.772-0.639c1.828-0.515,3.356-0.025,4.331,1.621
		c0.976,1.651,0.681,3.262-0.698,4.553c-1.28,1.197-2.823,1.438-4.357,0.506c-1.627-0.988-2.152-2.49-1.614-4.328
		c0.178-0.6,0.417-1.184,0.628-1.775L128.513,93.617z"/>
	<path fill="#FBFBFB" d="M101.053,69.204c0.006,2.111-1.617,3.701-3.746,3.636c-2.27-0.068-3.406-1.438-3.636-3.522
		c-0.208-1.879,1.759-3.834,3.675-3.878C99.378,65.391,101.047,67.085,101.053,69.204z"/>
	<path fill="#FEFEFE" d="M50.751,107.643c18.028,0.008,36.056,0.017,54.084,0.021c-0.456,0.621-1.129,0.58-1.784,0.58
		c-17.164,0.002-34.326,0.002-51.488-0.004c-0.266,0-0.541-0.047-0.791-0.133C50.719,108.09,50.756,107.807,50.751,107.643z"/>
	<path fill="#FEFEFE" d="M104.266,99.75c-17.67,0.002-35.341,0.004-53.011,0.006c0.752-0.82,1.747-0.521,2.646-0.523
		c15.905-0.016,31.811-0.016,47.715,0.002C102.516,99.234,103.509,98.939,104.266,99.75z"/>
</g>
<g>
	<path fill="#48484A" d="M218.291,56.501h-14.492v38.336h-1.477V56.501H187.83v-1.477h30.461V56.501z"/>
	<path fill="#48484A" d="M226.604,76.162v18.703h-1.477V55.052h12.688c4.192,0,7.419,0.907,9.68,2.721
		c2.26,1.814,3.391,4.462,3.391,7.943c0,2.242-0.716,4.279-2.146,6.111c-1.431,1.832-3.386,3.021-5.865,3.568
		c2.862,0.493,4.913,1.542,6.152,3.145c1.239,1.604,1.859,3.654,1.859,6.152v3.746c0,1.24,0.15,2.352,0.451,3.336
		s0.797,1.787,1.49,2.406v0.684h-1.449c-0.656-0.748-1.148-1.672-1.477-2.775s-0.492-2.338-0.492-3.705v-3.637
		c0-2.697-0.925-4.803-2.775-6.316c-1.851-1.514-4.489-2.27-7.916-2.27H226.604z M226.604,74.685h10.938
		c4.065,0,7.059-0.856,8.982-2.57c1.923-1.713,2.885-3.846,2.885-6.398c0-2.971-0.971-5.245-2.912-6.822
		c-1.941-1.576-4.835-2.365-8.682-2.365h-11.211V74.685z"/>
	<path fill="#48484A" d="M283.342,74.822h-19.961v18.54h22.75v1.477h-24.227V55.025h24.227v1.477h-22.75v16.844h19.961V74.822z"/>
	<path fill="#48484A" d="M317.686,85.295c0-2.498-0.916-4.494-2.748-5.988s-5.009-2.861-9.529-4.102
		c-4.539-1.221-7.861-2.611-9.967-4.17s-3.158-3.832-3.158-6.822c0-2.971,1.239-5.341,3.719-7.109
		c2.479-1.768,5.642-2.652,9.488-2.652c3.883,0,7.055,1.085,9.516,3.254c2.461,2.17,3.655,4.959,3.582,8.367l-0.055,0.164h-1.258
		c0-2.971-1.094-5.432-3.281-7.383c-2.188-1.95-5.022-2.926-8.504-2.926c-3.609,0-6.467,0.807-8.572,2.42s-3.158,3.551-3.158,5.811
		c0,2.261,0.87,4.139,2.611,5.633c1.741,1.495,4.89,2.826,9.447,3.992c4.411,1.167,7.743,2.594,9.994,4.28
		c2.251,1.686,3.377,4.078,3.377,7.178c0,3.154-1.285,5.637-3.855,7.451s-5.788,2.721-9.652,2.721
		c-3.992,0-7.429-0.934-10.309-2.803c-2.88-1.869-4.275-4.809-4.184-8.818l0.055-0.164h1.23c0,3.609,1.331,6.23,3.992,7.861
		c2.661,1.631,5.733,2.447,9.215,2.447c3.5,0,6.375-0.803,8.627-2.406C316.56,89.926,317.686,87.848,317.686,85.295z"/>
	<path fill="#48484A" d="M353.725,56.501h-14.492v38.336h-1.477V56.501h-14.492v-1.477h30.461V56.501z"/>
	<path fill="#48484A" d="M389.381,94.838h-1.477l-25.539-37.079l-0.164,0.055v37.024h-1.504V55.025h1.504l25.539,36.997l0.164-0.055
		V55.025h1.477V94.838z"/>
	<path fill="#48484A" d="M421.756,74.822h-19.961v18.54h22.75v1.477h-24.227V55.025h24.227v1.477h-22.75v16.844h19.961V74.822z
		 M416.232,45.017h2.133l0.055,0.137l-6.316,7.137h-1.832l-0.055-0.137L416.232,45.017z"/>
	<path fill="#48484A" d="M472.178,82.643l0.055,0.164c0.072,4.084-1.162,7.205-3.705,9.365s-5.893,3.24-10.049,3.24
		c-4.357,0-7.848-1.609-10.473-4.826s-3.938-7.441-3.938-12.674v-5.961c0-5.213,1.313-9.434,3.938-12.66s6.116-4.84,10.473-4.84
		c4.156,0,7.506,1.085,10.049,3.254c2.543,2.17,3.777,5.269,3.705,9.297l-0.055,0.164h-1.258c0-3.591-1.117-6.361-3.35-8.313
		c-2.233-1.95-5.264-2.926-9.092-2.926c-3.883,0-7.009,1.468-9.379,4.402c-2.37,2.936-3.555,6.791-3.555,11.566v6.016
		c0,4.83,1.185,8.709,3.555,11.635c2.37,2.926,5.496,4.389,9.379,4.389c3.828,0,6.858-0.939,9.092-2.816
		c2.232-1.877,3.35-4.703,3.35-8.477H472.178z M458.643,49.419l5.031-5.113h1.832v0.438l-5.797,5.66h-2.16l-5.852-5.715v-0.383
		h1.941L458.643,49.419z"/>
	<path fill="#48484A" d="M484.455,94.838h-1.477V55.025h1.477V94.838z"/>
	<path fill="#48484A" d="M525.17,94.838h-1.477l-25.539-37.079l-0.164,0.055v37.024h-1.504V55.025h1.504l25.539,36.997l0.164-0.055
		V55.025h1.477V94.838z"/>
	<path fill="#48484A" d="M545.814,77.146l0.711,1.367l0.738-1.367l13.207-22.122h1.805l-14.957,24.692v15.121h-1.504V79.717
		l-14.957-24.692h1.805L545.814,77.146z"/>
	<path fill="#48484A" d="M606.08,85.295c0-2.498-0.916-4.494-2.748-5.988s-5.009-2.861-9.529-4.102
		c-4.539-1.221-7.861-2.611-9.967-4.17s-3.158-3.832-3.158-6.822c0-2.971,1.239-5.341,3.719-7.109
		c2.479-1.768,5.642-2.652,9.488-2.652c3.883,0,7.055,1.085,9.516,3.254c2.461,2.17,3.654,4.959,3.582,8.367l-0.055,0.164h-1.258
		c0-2.971-1.094-5.432-3.281-7.383c-2.188-1.95-5.022-2.926-8.504-2.926c-3.609,0-6.467,0.807-8.572,2.42s-3.158,3.551-3.158,5.811
		c0,2.261,0.87,4.139,2.611,5.633c1.74,1.495,4.89,2.826,9.447,3.992c4.411,1.167,7.742,2.594,9.994,4.28
		c2.251,1.686,3.377,4.078,3.377,7.178c0,3.154-1.285,5.637-3.855,7.451s-5.788,2.721-9.652,2.721
		c-3.992,0-7.429-0.934-10.309-2.803c-2.881-1.869-4.275-4.809-4.184-8.818l0.055-0.164h1.23c0,3.609,1.33,6.23,3.992,7.861
		c2.661,1.631,5.732,2.447,9.215,2.447c3.5,0,6.375-0.803,8.627-2.406C604.954,89.926,606.08,87.848,606.08,85.295z"/>
	<path fill="#48484A" d="M616.963,76.162v18.703h-1.477V55.052h12.688c4.192,0,7.419,0.907,9.68,2.721
		c2.26,1.814,3.391,4.462,3.391,7.943c0,2.242-0.716,4.279-2.146,6.111c-1.432,1.832-3.387,3.021-5.865,3.568
		c2.861,0.493,4.912,1.542,6.152,3.145c1.239,1.604,1.859,3.654,1.859,6.152v3.746c0,1.24,0.15,2.352,0.451,3.336
		s0.797,1.787,1.49,2.406v0.684h-1.449c-0.656-0.748-1.148-1.672-1.477-2.775s-0.492-2.338-0.492-3.705v-3.637
		c0-2.697-0.926-4.803-2.775-6.316c-1.851-1.514-4.489-2.27-7.916-2.27H616.963z M616.963,74.685H627.9
		c4.064,0,7.059-0.856,8.982-2.57c1.923-1.713,2.885-3.846,2.885-6.398c0-2.971-0.971-5.245-2.912-6.822
		c-1.941-1.576-4.836-2.365-8.682-2.365h-11.211V74.685z"/>
</g>
</svg>
